{"asset":{"version":"2.0","generator":"babylon.js glTF exporter for 3ds max 2015 v1.3.33"},"scene":0,"scenes":[{"nodes":[0,15],"extensions":{}}],"nodes":[{"children":[1,2,4,8,13,14],"translation":[0.0,0.0,0.0],"rotation":[0.0,0.0,0.0,1.0],"scale":[1.0,1.0,1.0],"name":"sb1s_017"},{"mesh":0,"translation":[0.0,0.0,0.0],"rotation":[-1.43898347E-07,8.57701E-15,-5.96046448E-08,1.0],"scale":[1.15,1.15,1.15],"name":"sb1s_han_005"},{"children":[3],"translation":[0.0,0.0,0.0],"rotation":[0.0,0.0,0.0,1.0],"scale":[1.0,1.0,1.0],"name":"sb1s_apps_sink_006"},{"mesh":1,"translation":[0.0,0.0,0.0],"rotation":[0.0,0.0,0.0,1.0],"scale":[1.0,1.0,1.0],"name":"app_sink_006"},{"children":[5,6,7],"translation":[0.0,0.0,0.0],"rotation":[0.0,0.0,0.0,1.0],"scale":[1.0,1.0,1.0],"name":"sb1s_sh_006"},{"mesh":2,"translation":[0.0,0.0,0.0],"rotation":[0.0,0.0,0.0,1.0],"scale":[1.0,1.0,1.0],"name":"sb1s_sh-ft_006"},{"mesh":3,"translation":[0.0,0.0,0.0],"rotation":[0.0,0.0,0.0,1.0],"scale":[1.0,1.0,1.0],"name":"sb1s_sh-ed_006"},{"mesh":4,"translation":[0.0,0.0,0.0],"rotation":[0.0,0.0,0.0,1.0],"scale":[1.0,1.0,1.0],"name":"sb1s_sh-bk_006"},{"children":[9,10],"translation":[0.0,0.0,0.0],"rotation":[0.0,0.0,0.0,1.0],"scale":[1.0,1.0,1.0],"name":"sb1s_car_018"},{"mesh":5,"translation":[0.0,0.0,0.0],"rotation":[0.0,0.0,0.0,1.0],"scale":[1.0,1.0,1.0],"name":"sb1s_car-in_018"},{"children":[11,12],"translation":[0.0,0.0,0.0],"rotation":[0.0,0.0,0.0,1.0],"scale":[1.0,1.0,1.0],"name":"sb1s_car_vs_018"},{"mesh":6,"translation":[0.0,0.0,0.0],"rotation":[0.0,0.0,0.0,1.0],"scale":[1.0,1.0,1.0],"name":"sb1s_car_vs-r_020"},{"mesh":7,"translation":[0.0,0.0,0.0],"rotation":[0.0,0.0,0.0,1.0],"scale":[1.0,1.0,1.0],"name":"sb1s_car_vs-l_020"},{"mesh":8,"translation":[-0.06982422,1.07493252E-05,-25.8844],"rotation":[0.0,0.0,0.0,1.0],"scale":[1.0,1.0,1.0],"name":"sb1s_skr_019"},{"mesh":9,"translation":[0.0,0.0,0.0],"rotation":[0.0,0.0,0.0,1.0],"scale":[1.0,1.0,1.0],"name":"sb1s_c-top_006"},{"translation":[0.0,0.0,0.0],"rotation":[0.0,0.0,0.0,1.0],"scale":[1.0,1.0,1.0],"name":"Default light"}],"meshes":[{"primitives":[{"attributes":{"POSITION":1,"NORMAL":2,"TEXCOORD_0":3},"indices":0,"mode":4,"material":0}],"name":"sb1s_han_005"},{"primitives":[{"attributes":{"POSITION":5,"NORMAL":6,"TEXCOORD_0":7,"TEXCOORD_1":8},"indices":4,"mode":4,"material":0}],"name":"app_sink_006"},{"primitives":[{"attributes":{"POSITION":10,"NORMAL":11,"TEXCOORD_0":12,"TEXCOORD_1":13},"indices":9,"mode":4,"material":0}],"name":"sb1s_sh-ft_006"},{"primitives":[{"attributes":{"POSITION":15,"NORMAL":16,"TEXCOORD_0":17,"TEXCOORD_1":18},"indices":14,"mode":4,"material":0}],"name":"sb1s_sh-ed_006"},{"primitives":[{"attributes":{"POSITION":20,"NORMAL":21,"TEXCOORD_0":22,"TEXCOORD_1":23},"indices":19,"mode":4,"material":0}],"name":"sb1s_sh-bk_006"},{"primitives":[{"attributes":{"POSITION":25,"NORMAL":26,"TEXCOORD_0":27,"TEXCOORD_1":28},"indices":24,"mode":4,"material":0}],"name":"sb1s_car-in_018"},{"primitives":[{"attributes":{"POSITION":30,"NORMAL":31,"TEXCOORD_0":32,"TEXCOORD_1":33},"indices":29,"mode":4,"material":0}],"name":"sb1s_car_vs-r_020"},{"primitives":[{"attributes":{"POSITION":35,"NORMAL":36,"TEXCOORD_0":37,"TEXCOORD_1":38},"indices":34,"mode":4,"material":0}],"name":"sb1s_car_vs-l_020"},{"primitives":[{"attributes":{"POSITION":40,"NORMAL":41,"TEXCOORD_0":42},"indices":39,"mode":4,"material":0}],"name":"sb1s_skr_019"},{"primitives":[{"attributes":{"POSITION":44,"NORMAL":45,"TEXCOORD_0":46,"TEXCOORD_1":47},"indices":43,"mode":4,"material":0}],"name":"sb1s_c-top_006"}],"accessors":[{"bufferView":0,"componentType":5123,"count":1260,"type":"SCALAR","name":"accessorIndices"},{"bufferView":1,"componentType":5126,"count":1260,"max":[-203.3308,675.1629,263.366821],"min":[-215.391815,479.418335,237.854141],"type":"VEC3","name":"accessorPositions"},{"bufferView":1,"byteOffset":15120,"componentType":5126,"count":1260,"type":"VEC3","name":"accessorNormals"},{"bufferView":2,"componentType":5126,"count":1260,"type":"VEC2","name":"accessorUVs"},{"bufferView":0,"byteOffset":2520,"componentType":5123,"count":9441,"type":"SCALAR","name":"accessorIndices"},{"bufferView":1,"byteOffset":30240,"componentType":5126,"count":9441,"max":[291.9807,1068.28882,240.02002],"min":[-291.530029,642.057861,-307.300537],"type":"VEC3","name":"accessorPositions"},{"bufferView":1,"byteOffset":143532,"componentType":5126,"count":9441,"type":"VEC3","name":"accessorNormals"},{"bufferView":2,"byteOffset":10080,"componentType":5126,"count":9441,"type":"VEC2","name":"accessorUVs"},{"bufferView":2,"byteOffset":85608,"componentType":5126,"count":9441,"type":"VEC2","name":"accessorUV2s"},{"bufferView":0,"byteOffset":21404,"componentType":5123,"count":6,"type":"SCALAR","name":"accessorIndices"},{"bufferView":1,"byteOffset":256824,"componentType":5126,"count":6,"max":[298.930176,799.0,274.115],"min":[-299.069824,101.000061,274.115],"type":"VEC3","name":"accessorPositions"},{"bufferView":1,"byteOffset":256896,"componentType":5126,"count":6,"type":"VEC3","name":"accessorNormals"},{"bufferView":2,"byteOffset":161136,"componentType":5126,"count":6,"type":"VEC2","name":"accessorUVs"},{"bufferView":2,"byteOffset":161184,"componentType":5126,"count":6,"type":"VEC2","name":"accessorUV2s"},{"bufferView":0,"byteOffset":21416,"componentType":5123,"count":24,"type":"SCALAR","name":"accessorIndices"},{"bufferView":1,"byteOffset":256968,"componentType":5126,"count":24,"max":[298.930176,799.0,274.115],"min":[-299.069824,101.000061,254.11499],"type":"VEC3","name":"accessorPositions"},{"bufferView":1,"byteOffset":257256,"componentType":5126,"count":24,"type":"VEC3","name":"accessorNormals"},{"bufferView":2,"byteOffset":161232,"componentType":5126,"count":24,"type":"VEC2","name":"accessorUVs"},{"bufferView":2,"byteOffset":161424,"componentType":5126,"count":24,"type":"VEC2","name":"accessorUV2s"},{"bufferView":0,"byteOffset":21464,"componentType":5123,"count":6,"type":"SCALAR","name":"accessorIndices"},{"bufferView":1,"byteOffset":257544,"componentType":5126,"count":6,"max":[298.930176,799.0,254.11499],"min":[-299.069824,101.000061,254.11499],"type":"VEC3","name":"accessorPositions"},{"bufferView":1,"byteOffset":257616,"componentType":5126,"count":6,"type":"VEC3","name":"accessorNormals"},{"bufferView":2,"byteOffset":161616,"componentType":5126,"count":6,"type":"VEC2","name":"accessorUVs"},{"bufferView":2,"byteOffset":161664,"componentType":5126,"count":6,"type":"VEC2","name":"accessorUV2s"},{"bufferView":0,"byteOffset":21476,"componentType":5123,"count":216,"type":"SCALAR","name":"accessorIndices"},{"bufferView":1,"byteOffset":257688,"componentType":5126,"count":216,"max":[299.930176,799.9998,254.115479],"min":[-300.069824,99.99988,-305.884277],"type":"VEC3","name":"accessorPositions"},{"bufferView":1,"byteOffset":260280,"componentType":5126,"count":216,"type":"VEC3","name":"accessorNormals"},{"bufferView":2,"byteOffset":161712,"componentType":5126,"count":216,"type":"VEC2","name":"accessorUVs"},{"bufferView":2,"byteOffset":163440,"componentType":5126,"count":216,"type":"VEC2","name":"accessorUV2s"},{"bufferView":0,"byteOffset":21908,"componentType":5123,"count":6,"type":"SCALAR","name":"accessorIndices"},{"bufferView":1,"byteOffset":262872,"componentType":5126,"count":6,"max":[299.930176,799.9998,254.115479],"min":[299.930176,99.99988,-305.884277],"type":"VEC3","name":"accessorPositions"},{"bufferView":1,"byteOffset":262944,"componentType":5126,"count":6,"type":"VEC3","name":"accessorNormals"},{"bufferView":2,"byteOffset":165168,"componentType":5126,"count":6,"type":"VEC2","name":"accessorUVs"},{"bufferView":2,"byteOffset":165216,"componentType":5126,"count":6,"type":"VEC2","name":"accessorUV2s"},{"bufferView":0,"byteOffset":21920,"componentType":5123,"count":6,"type":"SCALAR","name":"accessorIndices"},{"bufferView":1,"byteOffset":263016,"componentType":5126,"count":6,"max":[-300.069824,799.9998,254.115479],"min":[-300.069824,99.99988,-305.884277],"type":"VEC3","name":"accessorPositions"},{"bufferView":1,"byteOffset":263088,"componentType":5126,"count":6,"type":"VEC3","name":"accessorNormals"},{"bufferView":2,"byteOffset":165264,"componentType":5126,"count":6,"type":"VEC2","name":"accessorUVs"},{"bufferView":2,"byteOffset":165312,"componentType":5126,"count":6,"type":"VEC2","name":"accessorUV2s"},{"bufferView":0,"byteOffset":21932,"componentType":5123,"count":36,"type":"SCALAR","name":"accessorIndices"},{"bufferView":1,"byteOffset":263160,"componentType":5126,"count":36,"max":[300.0,99.99997,279.999878],"min":[-300.0,0.0,-279.999878],"type":"VEC3","name":"accessorPositions"},{"bufferView":1,"byteOffset":263592,"componentType":5126,"count":36,"type":"VEC3","name":"accessorNormals"},{"bufferView":2,"byteOffset":165360,"componentType":5126,"count":36,"type":"VEC2","name":"accessorUVs"},{"bufferView":0,"byteOffset":22004,"componentType":5123,"count":192,"type":"SCALAR","name":"accessorIndices"},{"bufferView":1,"byteOffset":264024,"componentType":5126,"count":192,"max":[300.069824,825.7329,304.1162],"min":[-299.932129,800.3636,-305.8838],"type":"VEC3","name":"accessorPositions"},{"bufferView":1,"byteOffset":266328,"componentType":5126,"count":192,"type":"VEC3","name":"accessorNormals"},{"bufferView":2,"byteOffset":165648,"componentType":5126,"count":192,"type":"VEC2","name":"accessorUVs"},{"bufferView":2,"byteOffset":167184,"componentType":5126,"count":192,"type":"VEC2","name":"accessorUV2s"}],"bufferViews":[{"buffer":0,"byteLength":22388,"name":"bufferViewScalar"},{"buffer":0,"byteOffset":22388,"byteLength":268632,"byteStride":12,"name":"bufferViewFloatVec3"},{"buffer":0,"byteOffset":291020,"byteLength":168720,"byteStride":8,"name":"bufferViewFloatVec2"}],"buffers":[{"uri":"sb1s.bin","byteLength":459740}],"materials":[{"pbrMetallicRoughness":{"baseColorFactor":[0.6125001,0.6125001,0.6125001,1.0],"metallicFactor":0.0,"roughnessFactor":0.9},"emissiveFactor":[0.0,0.0,0.0],"alphaMode":"OPAQUE","name":"SC_export"}]}