{"asset":{"version":"2.0","generator":"babylon.js glTF exporter for 3ds max 2015 v1.3.33"},"scene":0,"scenes":[{"nodes":[0,13],"extensions":{}}],"nodes":[{"children":[1,2,6,7,12],"translation":[0.0,0.0,0.0],"rotation":[0.7071068,0.0,0.0,0.7071067],"scale":[1.0,1.0,1.0],"name":"b1s_01"},{"mesh":0,"translation":[0.0,0.0,0.0],"rotation":[-0.7071068,0.0,0.0,0.7071067],"scale":[1.0,1.0,1.0],"name":"b1s_skr_01"},{"children":[3,4,5],"translation":[0.0,0.0,0.0],"rotation":[-0.7071068,0.0,0.0,0.7071067],"scale":[1.0,1.0,1.0],"name":"b1s_sh_01"},{"mesh":1,"translation":[0.0,0.0,0.0],"rotation":[0.0,0.0,0.0,1.0],"scale":[1.0,1.0,1.0],"name":"b1s_sh-ft_01"},{"mesh":2,"translation":[0.0,0.0,0.0],"rotation":[0.0,0.0,0.0,1.0],"scale":[1.0,1.0,1.0],"name":"b1s_sh-ed_01"},{"mesh":3,"translation":[0.0,0.0,0.0],"rotation":[0.0,0.0,0.0,1.0],"scale":[1.0,1.0,1.0],"name":"b1s_sh-bk_01"},{"mesh":4,"translation":[0.0,-6.145382E-35,0.0],"rotation":[-0.707106948,4.214686E-08,-4.21468371E-08,0.7071066],"scale":[1.15,1.15,1.15],"name":"b1s_han_01"},{"children":[8,9],"translation":[0.0,0.0,0.0],"rotation":[-0.7071068,0.0,0.0,0.7071067],"scale":[1.0,1.0,1.0],"name":"b1s_car_01"},{"mesh":5,"translation":[0.0,0.0,0.0],"rotation":[0.0,0.0,0.0,1.0],"scale":[1.0,1.0,1.0],"name":"b1s_car-in_01"},{"children":[10,11],"translation":[0.0,0.0,0.0],"rotation":[0.0,0.0,0.0,1.0],"scale":[1.0,1.0,1.0],"name":"b1s_car_vs_01"},{"mesh":6,"translation":[0.0,0.0,0.0],"rotation":[0.0,0.0,0.0,1.0],"scale":[1.0,1.0,1.0],"name":"b1s_car_vs-l_01"},{"mesh":7,"translation":[0.0,0.0,0.0],"rotation":[0.0,0.0,0.0,1.0],"scale":[1.0,1.0,1.0],"name":"b1s_car_vs-r_01"},{"mesh":8,"translation":[0.0,0.0,0.0],"rotation":[-0.7071068,0.0,0.0,0.7071067],"scale":[1.0,1.0,1.0],"name":"b1s_c-top_01"},{"translation":[0.0,0.0,0.0],"rotation":[0.0,0.0,0.0,1.0],"scale":[1.0,1.0,1.0],"name":"Default light"}],"meshes":[{"primitives":[{"attributes":{"POSITION":1,"NORMAL":2,"TEXCOORD_0":3,"TEXCOORD_1":4},"indices":0,"mode":4,"material":0}],"name":"b1s_skr_01"},{"primitives":[{"attributes":{"POSITION":6,"NORMAL":7,"TEXCOORD_0":8,"TEXCOORD_1":9},"indices":5,"mode":4,"material":0}],"name":"b1s_sh-ft_01"},{"primitives":[{"attributes":{"POSITION":11,"NORMAL":12,"TEXCOORD_0":13,"TEXCOORD_1":14},"indices":10,"mode":4,"material":0}],"name":"b1s_sh-ed_01"},{"primitives":[{"attributes":{"POSITION":16,"NORMAL":17,"TEXCOORD_0":18,"TEXCOORD_1":19},"indices":15,"mode":4,"material":0}],"name":"b1s_sh-bk_01"},{"primitives":[{"attributes":{"POSITION":21,"NORMAL":22,"TEXCOORD_0":23},"indices":20,"mode":4,"material":0}],"name":"b1s_han_01"},{"primitives":[{"attributes":{"POSITION":25,"NORMAL":26,"TEXCOORD_0":27,"TEXCOORD_1":28},"indices":24,"mode":4,"material":0}],"name":"b1s_car-in_01"},{"primitives":[{"attributes":{"POSITION":30,"NORMAL":31,"TEXCOORD_0":32,"TEXCOORD_1":33},"indices":29,"mode":4,"material":0}],"name":"b1s_car_vs-l_01"},{"primitives":[{"attributes":{"POSITION":35,"NORMAL":36,"TEXCOORD_0":37,"TEXCOORD_1":38},"indices":34,"mode":4,"material":0}],"name":"b1s_car_vs-r_01"},{"primitives":[{"attributes":{"POSITION":40,"NORMAL":41,"TEXCOORD_0":42},"indices":39,"mode":4,"material":0}],"name":"b1s_c-top_01"}],"accessors":[{"bufferView":0,"componentType":5123,"count":36,"type":"SCALAR","name":"accessorIndices"},{"bufferView":1,"componentType":5126,"count":36,"max":[300.0,100.0,255.000061],"min":[-300.0,1.2673263E-07,-304.999939],"type":"VEC3","name":"accessorPositions"},{"bufferView":1,"byteOffset":432,"componentType":5126,"count":36,"type":"VEC3","name":"accessorNormals"},{"bufferView":2,"componentType":5126,"count":36,"type":"VEC2","name":"accessorUVs"},{"bufferView":2,"byteOffset":288,"componentType":5126,"count":36,"type":"VEC2","name":"accessorUV2s"},{"bufferView":0,"byteOffset":72,"componentType":5123,"count":6,"type":"SCALAR","name":"accessorIndices"},{"bufferView":1,"byteOffset":864,"componentType":5126,"count":6,"max":[298.999969,799.000061,275.000061],"min":[-299.0,101.0,275.000061],"type":"VEC3","name":"accessorPositions"},{"bufferView":1,"byteOffset":936,"componentType":5126,"count":6,"type":"VEC3","name":"accessorNormals"},{"bufferView":2,"byteOffset":576,"componentType":5126,"count":6,"type":"VEC2","name":"accessorUVs"},{"bufferView":2,"byteOffset":624,"componentType":5126,"count":6,"type":"VEC2","name":"accessorUV2s"},{"bufferView":0,"byteOffset":84,"componentType":5123,"count":24,"type":"SCALAR","name":"accessorIndices"},{"bufferView":1,"byteOffset":1008,"componentType":5126,"count":24,"max":[298.999969,799.000061,275.000061],"min":[-299.0,101.0,255.000046],"type":"VEC3","name":"accessorPositions"},{"bufferView":1,"byteOffset":1296,"componentType":5126,"count":24,"type":"VEC3","name":"accessorNormals"},{"bufferView":2,"byteOffset":672,"componentType":5126,"count":24,"type":"VEC2","name":"accessorUVs"},{"bufferView":2,"byteOffset":864,"componentType":5126,"count":24,"type":"VEC2","name":"accessorUV2s"},{"bufferView":0,"byteOffset":132,"componentType":5123,"count":6,"type":"SCALAR","name":"accessorIndices"},{"bufferView":1,"byteOffset":1584,"componentType":5126,"count":6,"max":[298.999969,799.0,255.000061],"min":[-299.0,101.0,255.000046],"type":"VEC3","name":"accessorPositions"},{"bufferView":1,"byteOffset":1656,"componentType":5126,"count":6,"type":"VEC3","name":"accessorNormals"},{"bufferView":2,"byteOffset":1056,"componentType":5126,"count":6,"type":"VEC2","name":"accessorUVs"},{"bufferView":2,"byteOffset":1104,"componentType":5126,"count":6,"type":"VEC2","name":"accessorUV2s"},{"bufferView":0,"byteOffset":144,"componentType":5123,"count":1260,"type":"SCALAR","name":"accessorIndices"},{"bufferView":1,"byteOffset":1728,"componentType":5126,"count":1260,"max":[-209.652527,674.491638,264.9033],"min":[-221.713577,478.7471,239.12439],"type":"VEC3","name":"accessorPositions"},{"bufferView":1,"byteOffset":16848,"componentType":5126,"count":1260,"type":"VEC3","name":"accessorNormals"},{"bufferView":2,"byteOffset":1152,"componentType":5126,"count":1260,"type":"VEC2","name":"accessorUVs"},{"bufferView":0,"byteOffset":2664,"componentType":5123,"count":312,"type":"SCALAR","name":"accessorIndices"},{"bufferView":1,"byteOffset":31968,"componentType":5126,"count":312,"max":[300.0,800.7259,255.0],"min":[-300.0,100.0,-305.000031],"type":"VEC3","name":"accessorPositions"},{"bufferView":1,"byteOffset":35712,"componentType":5126,"count":312,"type":"VEC3","name":"accessorNormals"},{"bufferView":2,"byteOffset":11232,"componentType":5126,"count":312,"type":"VEC2","name":"accessorUVs"},{"bufferView":2,"byteOffset":13728,"componentType":5126,"count":312,"type":"VEC2","name":"accessorUV2s"},{"bufferView":0,"byteOffset":3288,"componentType":5123,"count":6,"type":"SCALAR","name":"accessorIndices"},{"bufferView":1,"byteOffset":39456,"componentType":5126,"count":6,"max":[-300.0,800.0,255.0],"min":[-300.0,100.0,-305.000031],"type":"VEC3","name":"accessorPositions"},{"bufferView":1,"byteOffset":39528,"componentType":5126,"count":6,"type":"VEC3","name":"accessorNormals"},{"bufferView":2,"byteOffset":16224,"componentType":5126,"count":6,"type":"VEC2","name":"accessorUVs"},{"bufferView":2,"byteOffset":16272,"componentType":5126,"count":6,"type":"VEC2","name":"accessorUV2s"},{"bufferView":0,"byteOffset":3300,"componentType":5123,"count":6,"type":"SCALAR","name":"accessorIndices"},{"bufferView":1,"byteOffset":39600,"componentType":5126,"count":6,"max":[300.0,800.0,255.0],"min":[300.0,100.0,-305.000031],"type":"VEC3","name":"accessorPositions"},{"bufferView":1,"byteOffset":39672,"componentType":5126,"count":6,"type":"VEC3","name":"accessorNormals"},{"bufferView":2,"byteOffset":16320,"componentType":5126,"count":6,"type":"VEC2","name":"accessorUVs"},{"bufferView":2,"byteOffset":16368,"componentType":5126,"count":6,"type":"VEC2","name":"accessorUV2s"},{"bufferView":0,"byteOffset":3312,"componentType":5123,"count":36,"type":"SCALAR","name":"accessorIndices"},{"bufferView":1,"byteOffset":39744,"componentType":5126,"count":36,"max":[300.0,820.0,305.000061],"min":[-300.0,800.363159,-304.999939],"type":"VEC3","name":"accessorPositions"},{"bufferView":1,"byteOffset":40176,"componentType":5126,"count":36,"type":"VEC3","name":"accessorNormals"},{"bufferView":2,"byteOffset":16416,"componentType":5126,"count":36,"type":"VEC2","name":"accessorUVs"}],"bufferViews":[{"buffer":0,"byteLength":3384,"name":"bufferViewScalar"},{"buffer":0,"byteOffset":3384,"byteLength":40608,"byteStride":12,"name":"bufferViewFloatVec3"},{"buffer":0,"byteOffset":43992,"byteLength":16704,"byteStride":8,"name":"bufferViewFloatVec2"}],"buffers":[{"uri":"b1s.bin","byteLength":60696}],"materials":[{"pbrMetallicRoughness":{"baseColorFactor":[0.6125001,0.6125001,0.6125001,1.0],"metallicFactor":0.0,"roughnessFactor":0.9},"emissiveFactor":[0.0,0.0,0.0],"alphaMode":"OPAQUE","name":"SC_export"}]}